<?xml version="1.0" encoding="utf-8"?>
<!-- Generator: Adobe Illustrator 21.0.0, SVG Export Plug-In . SVG Version: 6.00 Build 0)  -->
<svg version="1.1" id="Capa_1" xmlns="http://www.w3.org/2000/svg" xmlns:xlink="http://www.w3.org/1999/xlink" x="0px" y="0px"
	 viewBox="0 0 144.2 32.4" style="enable-background:new 0 0 144.2 32.4;" xml:space="preserve">
<style type="text/css">
	.st0{fill:#99896E;}
</style>
<g>
	<g>
		<path class="st0" d="M142.6,28.7c-0.1,0.4-0.4,0.7-0.7,0.9c-0.2,0.2-0.7,0.6-0.9,0.7c-0.4,0.1-0.7,0.2-1,0.2c-0.3,0-0.8-0.1-1-0.2
			c-0.4-0.1-0.7-0.4-0.9-0.7c-0.2-0.2-0.6-0.7-0.7-0.9c-0.1-0.4-0.2-0.7-0.2-1c0-0.4,0.1-0.8,0.2-1c0.1-0.4,0.4-0.7,0.7-0.9
			c0.2-0.2,0.6-0.6,0.9-0.7c0.4-0.1,0.7-0.2,1-0.2c0.3,0,0.8,0.1,1,0.2c0.4,0.1,0.7,0.4,0.9,0.7c0.2,0.2,0.6,0.6,0.7,0.9
			c0.1,0.4,0.2,0.7,0.2,1C142.7,28.1,142.7,28.5,142.6,28.7 M142.8,26.5c-0.1-0.4-0.4-0.8-0.7-1c-0.2-0.4-0.7-0.6-1-0.7
			c-0.4-0.1-0.8-0.2-1.2-0.2s-0.9,0.1-1.2,0.2c-0.4,0.1-0.8,0.4-1,0.7c-0.4,0.4-0.6,0.7-0.7,1c-0.1,0.4-0.2,0.8-0.2,1.2
			c0,0.4,0.1,0.8,0.2,1.2c0.1,0.4,0.4,0.8,0.7,1c0.4,0.4,0.7,0.6,1,0.7c0.4,0.1,0.8,0.2,1.2,0.2s0.8-0.1,1.2-0.2
			c0.4-0.1,0.8-0.4,1-0.8c0.4-0.2,0.6-0.7,0.7-1c0.1-0.4,0.2-0.8,0.2-1.2C143.2,27.3,143.1,27,142.8,26.5"/>
		<path class="st0" d="M140,27.5h-0.7v-1.2h0.7c0.4,0,0.7,0.1,0.8,0.1c0.1,0.1,0.2,0.2,0.2,0.6c0,0.2-0.1,0.4-0.2,0.6
			C140.7,27.4,140.4,27.5,140,27.5 M141.2,27.4c0.1-0.1,0.2-0.4,0.2-0.7c0-0.4-0.1-0.6-0.4-0.8c-0.2-0.1-0.7-0.2-1-0.2h-1.2v3.3h0.6
			v-1.4h0.8l0.8,1.4h0.7l-0.8-1.5C141,27.7,141.1,27.7,141.2,27.4"/>
		<path class="st0" d="M23.5,22.7c0,2.9-1.3,5.1-3.9,6.7c-2.2,1.4-4.7,2.1-7.8,2.1s-6.3-0.8-9.8-2.2l-0.6,0.2H1.1v-6.2h0.9
			c0.6,2.2,1.7,4,3.6,5.2c1.8,1.2,3.9,1.7,6.2,1.7c2.1,0,3.9-0.6,5.4-1.4c1.8-1.2,2.5-2.5,2.5-4.6c0-3-2.5-5.3-7.7-6.9
			C5.1,15.1,1.7,12.1,1.7,8.6c0-2.5,1.2-4.5,3.6-5.9c2-1.2,4.4-1.8,7-1.8c3,0,5.8,0.7,8.5,2l0.7-0.2H22v5.2h-1
			c-0.6-1.8-1.7-3.2-3.6-4.3c-1.7-0.9-3.5-1.4-5.5-1.4c-1.8,0-3.2,0.4-4.4,1.3c-1.3,0.9-2,2.2-2,3.9c0,2.8,3,5.1,8.7,6.8
			C20.4,16,23.5,18.8,23.5,22.7"/>
		<polygon class="st0" points="35.5,29.7 38.8,29.7 38.8,30.6 28.4,30.6 28.4,29.7 31.5,29.7 31.5,2.5 28.4,2.5 28.4,1.7 38.8,1.7 
			38.8,2.5 35.5,2.5 		"/>
		<path class="st0" d="M48.2,16.3c0,4.1,1.2,7.5,3.3,10c2.3,2.8,5.5,4,9.7,4c1.3,0,2.8-0.2,4.3-0.8c1.8-0.7,3-1.4,3.3-2.4V18h-4.1
			h-1v-0.9h12.1V18H73v10.1c-3.6,2.3-7.7,3.5-12.8,3.5c-4.6,0-8.5-1.3-11.6-4c-3.2-2.9-4.8-6.6-4.8-11c0-4.6,1.7-8.5,5.1-11.4
			c3.2-2.8,7.2-4.1,12-4.1c1.7,0,3.6,0.2,5.8,0.7c2.5,0.6,4.4,1.2,5.3,2l0.6-0.2H73v5.9h-0.9c-1-2.3-2.4-4.1-4.3-5.3
			c-2-1.3-4.1-2-6.7-2c-4.1,0-7.4,1.4-9.5,4.1C49.3,8.7,48.2,12.1,48.2,16.3"/>
		<path class="st0" d="M87.3,16.3l5.8,0.1c5.8,0.1,8.7-2.3,8.7-7c0-4.6-2.8-6.8-8.4-6.7l-6.2,0.1L87.3,16.3L87.3,16.3z M87.3,17.2
			v12.4h3.2v1H80.3v-1h3.2V2.5h-3.2V1.7h5.2l7.8-0.1c3.3-0.1,6.2,0.2,8.5,1.2c3.2,1.3,4.7,3.5,4.7,6.3c0,4.1-2.8,6.6-8.4,7.5
			c2,0.7,3.5,1.5,4.6,2.9c0.8,0.8,1.8,2.1,3,3.9c1.2,2,2.1,3.2,2.9,4c1.8,2,3.7,3,5.8,3.1v0.2c-1.7,0.4-3.1,0.4-4.3,0.2
			c-1.2-0.1-2.3-0.4-3.5-0.9c-1.3-0.7-2.3-1.4-3.2-2.5c-0.8-1.2-1.7-2.8-2.9-4.6c-1.8-3.2-4.4-5.1-7.5-5.5h-5.8v0H87.3z"/>
		<polygon class="st0" points="134.6,1.7 134.6,2.5 138.3,2.5 128.6,16.6 118.6,2.5 122.3,2.5 122.3,1.7 111.4,1.7 111.4,2.5 
			114.3,2.5 125.6,19.1 125.6,29.7 122.4,29.7 122.4,30.6 132.7,30.6 132.7,29.7 129.5,29.7 129.5,18.7 140.4,2.5 143.2,2.5 
			143.2,1.7 		"/>
	</g>
</g>
</svg>
